<svg xmlns="http://www.w3.org/2000/svg" viewBox="0 0 228.69 23.87"><defs><style>.cls-1{fill:#f5efd8;}</style></defs><g id="Layer_2" data-name="Layer 2"><g id="Layer_1-2" data-name="Layer 1"><path class="cls-1" d="M21.6,17.89v5.24H0V.74H6.53V17.89Z"/><path class="cls-1" d="M58.91,17c0,3.87-3.49,6.14-9,6.14H32.61V.74h16c5.5,0,9,2.2,9,5.79,0,2.53-1.76,4.73-5.12,4.93C56,11.68,58.91,13.54,58.91,17ZM39.07,9.66h8.48c2.18,0,3.62-.48,3.62-2.2s-1.44-2.18-3.62-2.18H39.07Zm13.15,6.56c0-1.82-1.37-2.33-3.68-2.33H39.07v4.7h9.47C50.85,18.59,52.22,18.05,52.22,16.22Z"/><path class="cls-1" d="M59.83,11.94C59.83,4.35,65.56,0,74.42,0S89,4.35,89,11.94,83.29,23.87,74.42,23.87,59.83,19.52,59.83,11.94Zm22.56,0c0-4.23-3-6.63-8-6.63s-8,2.4-8,6.63,3,6.62,8,6.62S82.39,16.16,82.39,11.94Z"/><path class="cls-1" d="M91.09,11.94C91.09,4.35,96.82,0,105.69,0s14.62,4.35,14.62,11.94-5.76,11.93-14.62,11.93S91.09,19.52,91.09,11.94Zm22.56,0c0-4.23-3-6.63-8-6.63s-8,2.4-8,6.63,3,6.62,8,6.62S113.65,16.16,113.65,11.94Z"/><path class="cls-1" d="M141.33,23.13l-7.52-9.63-5,4.42v5.21h-6.53V.74h6.53V11.1L140.3.74h8.13l-10,8.92L149,23.13Z"/><path class="cls-1" d="M169,15.13l5.6,2.88c-2.08,3.3-6.6,5.86-12.64,5.86-8.45,0-14.15-4.38-14.15-11.93S153.52,0,162.22,0c5.79,0,10.27,2.62,12.29,5.82L168.88,8.7a7.44,7.44,0,0,0-6.75-3.39c-4.61,0-7.68,2.34-7.68,6.63s3.07,6.62,7.68,6.62A7.59,7.59,0,0,0,169,15.13Z"/><path class="cls-1" d="M198.8,17.89v5.24H177.2V.74h6.53V17.89Z"/><path class="cls-1" d="M198.82.87V9.66c0,3.1-2,5.13-5.74,5.13s-5.75-2-5.75-5.13V.87h4.18V7.2c0,1.77-.33,2.92,1.57,2.92s1.5-1.15,1.5-2.92V.87Z"/><path class="cls-1" d="M228.69,17.12c0,3.87-3.49,6.14-9,6.14H202.39V.87h16c5.51,0,9,2.2,9,5.79,0,2.53-1.76,4.73-5.12,4.93C225.81,11.81,228.69,13.67,228.69,17.12ZM208.85,9.79h8.48c2.18,0,3.62-.48,3.62-2.2s-1.44-2.18-3.62-2.18h-8.48ZM222,16.35c0-1.82-1.38-2.33-3.68-2.33h-9.48v4.7h9.48C220.63,18.72,222,18.18,222,16.35Z"/><path class="cls-1" d="M21.6,11.55v3.09H9.75V.74H21.42v3.1H12.93V6.12h7v3h-7v2.47Z"/></g></g></svg>